<svg width="147" height="29" viewBox="0 0 147 29" fill="none" xmlns="http://www.w3.org/2000/svg">
<path d="M28.5803 23V4.81818H35.8601C37.1977 4.81818 38.3133 5.01645 39.207 5.413C40.1007 5.80954 40.7725 6.35997 41.2223 7.06428C41.6721 7.76267 41.897 8.56759 41.897 9.47905C41.897 10.1893 41.755 10.8137 41.4709 11.3523C41.1868 11.8849 40.7962 12.3229 40.299 12.6662C39.8078 13.0036 39.2455 13.2433 38.6122 13.3853V13.5629C39.3047 13.5924 39.9528 13.7878 40.5565 14.1488C41.1661 14.5098 41.6603 15.0159 42.0391 15.6669C42.4179 16.312 42.6072 17.0814 42.6072 17.9751C42.6072 18.9399 42.3675 19.801 41.8881 20.5586C41.4147 21.3103 40.7133 21.9051 39.7841 22.343C38.8549 22.781 37.7096 23 36.3484 23H28.5803ZM32.4244 19.8572H35.5582C36.6295 19.8572 37.4107 19.6531 37.902 19.2447C38.3932 18.8304 38.6388 18.2799 38.6388 17.5934C38.6388 17.0903 38.5175 16.6464 38.2749 16.2617C38.0322 15.877 37.686 15.5752 37.2362 15.3562C36.7923 15.1372 36.2625 15.0277 35.647 15.0277H32.4244V19.8572ZM32.4244 12.4265H35.2741C35.8009 12.4265 36.2685 12.3348 36.6768 12.1513C37.0911 11.9619 37.4167 11.6955 37.6534 11.3523C37.8961 11.009 38.0174 10.5977 38.0174 10.1183C38.0174 9.46129 37.7836 8.93158 37.3161 8.52912C36.8544 8.12666 36.1974 7.92543 35.3452 7.92543H32.4244V12.4265ZM47.676 23.2575C46.806 23.2575 46.0307 23.1065 45.3501 22.8047C44.6694 22.4969 44.1308 22.0442 43.7343 21.4464C43.3437 20.8427 43.1483 20.091 43.1483 19.1914C43.1483 18.4338 43.2874 17.7976 43.5656 17.2827C43.8438 16.7678 44.2226 16.3535 44.702 16.0398C45.1814 15.7261 45.7259 15.4893 46.3355 15.3295C46.951 15.1697 47.5961 15.0573 48.2709 14.9922C49.064 14.9093 49.7032 14.8324 50.1885 14.7614C50.6738 14.6844 51.026 14.572 51.2449 14.424C51.4639 14.276 51.5734 14.0571 51.5734 13.767V13.7138C51.5734 13.1515 51.3959 12.7165 51.0407 12.4087C50.6916 12.101 50.1944 11.9471 49.5493 11.9471C48.8686 11.9471 48.3271 12.098 47.9246 12.3999C47.5222 12.6958 47.2558 13.0687 47.1256 13.5185L43.6278 13.2344C43.8053 12.4058 44.1545 11.6896 44.6753 11.0859C45.1962 10.4763 45.8679 10.0088 46.6906 9.68324C47.5192 9.3518 48.478 9.18608 49.567 9.18608C50.3246 9.18608 51.0496 9.27486 51.7421 9.45241C52.4405 9.62997 53.059 9.90518 53.5976 10.2781C54.1421 10.6509 54.5712 11.1303 54.8849 11.7163C55.1985 12.2963 55.3554 12.9917 55.3554 13.8026V23H51.7687V21.109H51.6622C51.4432 21.5352 51.1502 21.911 50.7833 22.2365C50.4163 22.5561 49.9754 22.8076 49.4605 22.9911C48.9456 23.1687 48.3508 23.2575 47.676 23.2575ZM48.7591 20.6474C49.3155 20.6474 49.8067 20.5379 50.2329 20.3189C50.659 20.094 50.9934 19.7921 51.2361 19.4134C51.4787 19.0346 51.6001 18.6055 51.6001 18.1261V16.679C51.4817 16.7559 51.3189 16.8269 51.1118 16.892C50.9105 16.9512 50.6827 17.0075 50.4282 17.0607C50.1737 17.1081 49.9192 17.1525 49.6647 17.1939C49.4102 17.2294 49.1794 17.262 48.9722 17.2915C48.5283 17.3567 48.1407 17.4602 47.8092 17.6023C47.4778 17.7443 47.2203 17.9367 47.0368 18.1793C46.8534 18.4161 46.7616 18.712 46.7616 19.0671C46.7616 19.582 46.9481 19.9756 47.3209 20.2479C47.6997 20.5142 48.1791 20.6474 48.7591 20.6474ZM68.3854 13.2521L64.923 13.4652C64.8638 13.1693 64.7366 12.9029 64.5413 12.6662C64.346 12.4235 64.0885 12.2312 63.7689 12.0891C63.4552 11.9412 63.0794 11.8672 62.6414 11.8672C62.0555 11.8672 61.5613 11.9915 61.1588 12.2401C60.7564 12.4827 60.5551 12.8082 60.5551 13.2166C60.5551 13.5421 60.6853 13.8174 60.9458 14.0423C61.2062 14.2672 61.653 14.4477 62.2863 14.5838L64.7544 15.081C66.0801 15.3532 67.0685 15.7912 67.7195 16.3949C68.3706 16.9986 68.6961 17.7917 68.6961 18.7741C68.6961 19.6679 68.4327 20.4521 67.906 21.1268C67.3852 21.8015 66.669 22.3282 65.7575 22.707C64.852 23.0799 63.8074 23.2663 62.6237 23.2663C60.8185 23.2663 59.3803 22.8905 58.309 22.1388C57.2437 21.3813 56.6193 20.3514 56.4358 19.0494L60.1556 18.854C60.2681 19.4045 60.5403 19.8247 60.9724 20.1147C61.4044 20.3988 61.9578 20.5408 62.6325 20.5408C63.2954 20.5408 63.8281 20.4136 64.2306 20.1591C64.6389 19.8987 64.8461 19.5643 64.852 19.1559C64.8461 18.8126 64.7011 18.5315 64.417 18.3125C64.1329 18.0876 63.6949 17.916 63.1031 17.7976L60.7416 17.3271C59.4099 17.0607 58.4185 16.5991 57.7675 15.9421C57.1224 15.2852 56.7998 14.4477 56.7998 13.4297C56.7998 12.5537 57.0365 11.7991 57.51 11.1658C57.9894 10.5326 58.6612 10.0443 59.5253 9.70099C60.3953 9.35772 61.4133 9.18608 62.5793 9.18608C64.3016 9.18608 65.6569 9.55007 66.6453 10.2781C67.6396 11.006 68.2197 11.9974 68.3854 13.2521ZM76.0421 23.2663C74.6394 23.2663 73.432 22.9822 72.4199 22.4141C71.4138 21.84 70.6384 21.0291 70.0939 19.9815C69.5494 18.928 69.2772 17.6822 69.2772 16.244C69.2772 14.8413 69.5494 13.6102 70.0939 12.5508C70.6384 11.4914 71.4049 10.6657 72.3933 10.0739C73.3876 9.48201 74.5536 9.18608 75.8912 9.18608C76.7908 9.18608 77.6283 9.33108 78.4036 9.62109C79.1848 9.90518 79.8655 10.3343 80.4455 10.9084C81.0314 11.4825 81.4872 12.2045 81.8127 13.0746C82.1382 13.9387 82.301 14.9508 82.301 16.1108V17.1495H70.7864V14.8058H78.7409C78.7409 14.2612 78.6226 13.7789 78.3858 13.3587C78.1491 12.9384 77.8206 12.61 77.4004 12.3732C76.9861 12.1306 76.5037 12.0092 75.9533 12.0092C75.3792 12.0092 74.8702 12.1424 74.4263 12.4087C73.9883 12.6692 73.6451 13.0213 73.3965 13.4652C73.1479 13.9032 73.0207 14.3915 73.0147 14.93V17.1584C73.0147 17.8331 73.139 18.4161 73.3876 18.9073C73.6421 19.3986 74.0002 19.7773 74.4618 20.0437C74.9235 20.31 75.4709 20.4432 76.1042 20.4432C76.5244 20.4432 76.9092 20.384 77.2583 20.2656C77.6075 20.1473 77.9064 19.9697 78.155 19.733C78.4036 19.4962 78.593 19.2062 78.7232 18.8629L82.2211 19.0938C82.0435 19.9342 81.6795 20.6681 81.1291 21.2955C80.5846 21.9169 79.8803 22.4022 79.0162 22.7514C78.158 23.0947 77.1666 23.2663 76.0421 23.2663ZM89.6802 23.2663C88.2834 23.2663 87.082 22.9704 86.0758 22.3786C85.0756 21.7808 84.3062 20.9522 83.7676 19.8928C83.2349 18.8333 82.9686 17.6141 82.9686 16.2351C82.9686 14.8383 83.2379 13.6132 83.7765 12.5597C84.321 11.5002 85.0933 10.6746 86.0936 10.0827C87.0938 9.48497 88.2834 9.18608 89.6625 9.18608C90.8521 9.18608 91.8938 9.40211 92.7875 9.83416C93.6812 10.2662 94.3884 10.8729 94.9093 11.6541C95.4301 12.4354 95.7172 13.3527 95.7704 14.4062H92.2015C92.1009 13.7256 91.8346 13.1781 91.4025 12.7638C90.9764 12.3436 90.4171 12.1335 89.7246 12.1335C89.1387 12.1335 88.6267 12.2933 88.1887 12.6129C87.7567 12.9266 87.4193 13.3853 87.1767 13.989C86.934 14.5927 86.8127 15.3236 86.8127 16.1818C86.8127 17.0518 86.931 17.7917 87.1678 18.4013C87.4105 19.0109 87.7508 19.4755 88.1887 19.7951C88.6267 20.1147 89.1387 20.2745 89.7246 20.2745C90.1567 20.2745 90.5443 20.1857 90.8876 20.0082C91.2368 19.8306 91.5239 19.5732 91.7488 19.2358C91.9796 18.8925 92.1305 18.4812 92.2015 18.0018H95.7704C95.7112 19.0434 95.4271 19.9608 94.9181 20.7539C94.4151 21.5411 93.7196 22.1566 92.8319 22.6005C91.9441 23.0444 90.8935 23.2663 89.6802 23.2663ZM100.83 23.2575C99.9603 23.2575 99.185 23.1065 98.5044 22.8047C97.8237 22.4969 97.2851 22.0442 96.8886 21.4464C96.498 20.8427 96.3026 20.091 96.3026 19.1914C96.3026 18.4338 96.4417 17.7976 96.7199 17.2827C96.9981 16.7678 97.3769 16.3535 97.8563 16.0398C98.3357 15.7261 98.8802 15.4893 99.4898 15.3295C100.105 15.1697 100.75 15.0573 101.425 14.9922C102.218 14.9093 102.857 14.8324 103.343 14.7614C103.828 14.6844 104.18 14.572 104.399 14.424C104.618 14.276 104.728 14.0571 104.728 13.767V13.7138C104.728 13.1515 104.55 12.7165 104.195 12.4087C103.846 12.101 103.349 11.9471 102.704 11.9471C102.023 11.9471 101.481 12.098 101.079 12.3999C100.676 12.6958 100.41 13.0687 100.28 13.5185L96.782 13.2344C96.9596 12.4058 97.3088 11.6896 97.8296 11.0859C98.3505 10.4763 99.0222 10.0088 99.8449 9.68324C100.674 9.3518 101.632 9.18608 102.721 9.18608C103.479 9.18608 104.204 9.27486 104.896 9.45241C105.595 9.62997 106.213 9.90518 106.752 10.2781C107.296 10.6509 107.725 11.1303 108.039 11.7163C108.353 12.2963 108.51 12.9917 108.51 13.8026V23H104.923V21.109H104.816C104.598 21.5352 104.305 21.911 103.938 22.2365C103.571 22.5561 103.13 22.8076 102.615 22.9911C102.1 23.1687 101.505 23.2575 100.83 23.2575ZM101.913 20.6474C102.47 20.6474 102.961 20.5379 103.387 20.3189C103.813 20.094 104.148 19.7921 104.39 19.4134C104.633 19.0346 104.754 18.6055 104.754 18.1261V16.679C104.636 16.7559 104.473 16.8269 104.266 16.892C104.065 16.9512 103.837 17.0075 103.582 17.0607C103.328 17.1081 103.073 17.1525 102.819 17.1939C102.564 17.2294 102.334 17.262 102.127 17.2915C101.683 17.3567 101.295 17.4602 100.964 17.6023C100.632 17.7443 100.375 17.9367 100.191 18.1793C100.008 18.4161 99.9159 18.712 99.9159 19.0671C99.9159 19.582 100.102 19.9756 100.475 20.2479C100.854 20.5142 101.333 20.6474 101.913 20.6474ZM110.194 23V9.36364H113.798V11.7695H113.958C114.242 10.9705 114.716 10.3402 115.378 9.87855C116.041 9.4169 116.834 9.18608 117.758 9.18608C118.693 9.18608 119.489 9.41986 120.146 9.88743C120.803 10.3491 121.241 10.9764 121.46 11.7695H121.602C121.88 10.9883 122.383 10.3639 123.111 9.89631C123.845 9.42282 124.712 9.18608 125.712 9.18608C126.985 9.18608 128.018 9.5915 128.811 10.4023C129.61 11.2073 130.009 12.3495 130.009 13.8292V23H126.236V14.5749C126.236 13.8174 126.035 13.2492 125.632 12.8704C125.23 12.4916 124.727 12.3022 124.123 12.3022C123.437 12.3022 122.901 12.5212 122.516 12.9592C122.132 13.3912 121.939 13.9624 121.939 14.6726V23H118.273V14.495C118.273 13.8262 118.08 13.2936 117.696 12.897C117.317 12.5005 116.817 12.3022 116.195 12.3022C115.775 12.3022 115.396 12.4087 115.059 12.6218C114.727 12.829 114.464 13.1219 114.269 13.5007C114.073 13.8736 113.976 14.3116 113.976 14.8146V23H110.194ZM131.747 28.1136V9.36364H135.475V11.6541H135.644C135.81 11.2872 136.049 10.9143 136.363 10.5355C136.683 10.1508 137.097 9.8312 137.606 9.5767C138.121 9.31629 138.76 9.18608 139.524 9.18608C140.518 9.18608 141.435 9.4465 142.276 9.96733C143.116 10.4822 143.788 11.2605 144.291 12.3022C144.794 13.3379 145.046 14.6371 145.046 16.1996C145.046 17.7206 144.8 19.005 144.309 20.0526C143.823 21.0942 143.16 21.8844 142.32 22.4229C141.486 22.9556 140.55 23.2219 139.515 23.2219C138.781 23.2219 138.156 23.1006 137.641 22.858C137.132 22.6153 136.715 22.3105 136.39 21.9435C136.064 21.5707 135.816 21.1948 135.644 20.8161H135.528V28.1136H131.747ZM135.449 16.1818C135.449 16.9927 135.561 17.6999 135.786 18.3036C136.011 18.9073 136.336 19.3778 136.763 19.7152C137.189 20.0466 137.707 20.2124 138.316 20.2124C138.932 20.2124 139.453 20.0437 139.879 19.7063C140.305 19.363 140.627 18.8896 140.846 18.2859C141.071 17.6763 141.184 16.9749 141.184 16.1818C141.184 15.3946 141.074 14.7022 140.855 14.1044C140.636 13.5066 140.314 13.0391 139.888 12.7017C139.461 12.3643 138.938 12.1957 138.316 12.1957C137.701 12.1957 137.18 12.3584 136.754 12.6839C136.333 13.0095 136.011 13.4711 135.786 14.0689C135.561 14.6667 135.449 15.371 135.449 16.1818Z" fill="#0F172A"/>
<path fill-rule="evenodd" clip-rule="evenodd" d="M8.89507 6.87422C9.29652 7.27227 9.60541 7.75703 9.79878 8.29298C9.99764 8.84414 10.069 9.43458 10.0072 10.0184C9.9455 10.6022 9.75234 11.1636 9.4428 11.6591C9.13326 12.1545 8.71566 12.5705 8.22248 12.8749C7.7293 13.1792 7.17382 13.3636 6.59925 13.4138C6.17647 13.4507 5.75173 13.4142 5.34294 13.3069C5.59191 13.9558 5.97141 14.552 6.46458 15.0542C7.40223 16.0089 8.67396 16.5453 10 16.5453C11.326 16.5453 12.5978 16.0089 13.5354 15.0542C14.471 14.1016 14.9975 12.8104 14.9998 11.4635C14.9788 10.124 14.4399 8.84676 13.5 7.90894L13.491 7.89991L13.491 7.89986C13.2882 7.6934 13.0263 7.48487 12.7262 7.24599C11.75 6.46877 10.3701 5.37019 9.31091 2.97616C9.00222 3.22839 8.69939 3.55989 8.47567 3.93625C8.21759 4.3704 8.0886 4.82084 8.1183 5.26737C8.14665 5.69373 8.32715 6.23853 8.89507 6.87422ZM8.01101 0.78649C8.5562 0.389342 9.29038 0 10 0C10.538 0 11.0157 0.350543 11.1858 0.870245C12.0144 3.40121 13.0021 4.19671 14.0753 5.06103C14.4585 5.36967 14.8526 5.68709 15.2543 6.09545C16.6645 7.50492 17.4715 9.42424 17.4996 11.4363L17.4998 11.4544C17.4998 13.4797 16.7096 15.422 15.3031 16.8541C13.8967 18.2862 11.9891 19.0907 10 19.0907C8.01094 19.0907 6.10335 18.2862 4.69687 16.8541C3.29039 15.422 2.50024 13.4797 2.50024 11.4544C2.50024 11.4389 2.50022 11.423 2.5002 11.4066C2.49978 11.0497 2.49911 10.4877 2.68938 9.9065C2.86268 9.37714 3.35443 9.02444 3.90233 9.03656C4.45023 9.04867 4.92648 9.42277 5.07705 9.95929C5.12987 10.1475 5.2246 10.3207 5.35388 10.4656C5.48317 10.6104 5.64352 10.723 5.82248 10.7944C6.00143 10.8659 6.19416 10.8944 6.38569 10.8777C6.57722 10.861 6.76238 10.7995 6.92677 10.698C7.09116 10.5966 7.23036 10.4579 7.33354 10.2928C7.43672 10.1276 7.50111 9.94048 7.52169 9.74588C7.54227 9.55127 7.51849 9.35446 7.4522 9.17074C7.38591 8.98702 7.2789 8.82134 7.13949 8.68658C7.11955 8.66731 7.10024 8.64737 7.08159 8.6268C6.16807 7.61914 5.69691 6.5344 5.62409 5.43932C5.55222 4.35859 5.87634 3.39315 6.33699 2.61822C6.79466 1.84831 7.41022 1.22415 8.01101 0.78649ZM0.0484153 21.2865C0.238065 20.6106 0.9299 20.2193 1.59367 20.4124L10 22.8579L18.4063 20.4124C19.0701 20.2193 19.7619 20.6106 19.9516 21.2865C20.1412 21.9623 19.7569 22.6668 19.0931 22.8599L14.5499 24.1815L19.0931 25.5032C19.7569 25.6963 20.1412 26.4007 19.9516 27.0766C19.7619 27.7525 19.0701 28.1438 18.4063 27.9507L10 25.5052L1.59367 27.9507C0.9299 28.1438 0.238065 27.7525 0.0484153 27.0766C-0.141234 26.4007 0.243119 25.6963 0.906891 25.5032L5.45008 24.1815L0.906891 22.8599C0.243119 22.6668 -0.141234 21.9623 0.0484153 21.2865Z" fill="#07C983"/>
</svg>
